# xmcd CD database file
#
# Track frame offsets:
#	150
#	12252
#	32820
#	52324
#	72720
#	94527
#	113750
#	134649
#	149340
#	166487
#
# Disc length: 2583 seconds
#
# Revision: 1
# Processed by: cddbd v1.5.2PL0 Copyright (c) Steve Scherf et al.
# Submitted via: CDex 1.70beta2
#
DISCID=960a150a
DTITLE=Olavi Uusivirta - Nuoruustango
DYEAR=2003
DGENRE=Pop
TTITLE0=Jatsikansa tulee
TTITLE1=Ei Mit‰‰n koskaan ollutkaan
TTITLE2=Raivo h‰rk‰
TTITLE3=Lapsuuden loppu
TTITLE4=Lucifer
TTITLE5=Mikael
TTITLE6=Sininen huvimaja (feat. Reetaleena)
TTITLE7=J‰‰n
TTITLE8=Viiden pennin Narkissos
TTITLE9=Musta tulee kuningas
EXTD=YEAR: 2003
EXTT0=
EXTT1=
EXTT2=
EXTT3=
EXTT4=
EXTT5=
EXTT6=
EXTT7=
EXTT8=
EXTT9=
PLAYORDER=
